<?xml version="1.0" encoding="UTF-8" standalone="no"?>
<svg
   width="40"
   height="40"
   viewBox="0 0 10.583333 10.583334"
   version="1.1"
   id="svg1360"
   sodipodi:docname="systemic.svg"
   inkscape:version="1.3.2 (091e20ef0f, 2023-11-25)"
   xmlns:inkscape="http://www.inkscape.org/namespaces/inkscape"
   xmlns:sodipodi="http://sodipodi.sourceforge.net/DTD/sodipodi-0.dtd"
   xmlns="http://www.w3.org/2000/svg"
   xmlns:svg="http://www.w3.org/2000/svg"
   xmlns:rdf="http://www.w3.org/1999/02/22-rdf-syntax-ns#"
   xmlns:cc="http://creativecommons.org/ns#"
   xmlns:dc="http://purl.org/dc/elements/1.1/">
  <sodipodi:namedview
     id="namedview1"
     pagecolor="#ffffff"
     bordercolor="#000000"
     borderopacity="0.25"
     inkscape:showpageshadow="2"
     inkscape:pageopacity="0.0"
     inkscape:pagecheckerboard="0"
     inkscape:deskcolor="#d1d1d1"
     inkscape:zoom="2.6826924"
     inkscape:cx="79.956987"
     inkscape:cy="13.232975"
     inkscape:window-width="1315"
     inkscape:window-height="699"
     inkscape:window-x="51"
     inkscape:window-y="32"
     inkscape:window-maximized="1"
     inkscape:current-layer="g1179" />
  <defs
     id="defs1354" />
  <metadata
     id="metadata1357">
    <rdf:RDF>
      <cc:Work
         rdf:about="">
        <dc:format>image/svg+xml</dc:format>
        <dc:type
           rdf:resource="http://purl.org/dc/dcmitype/StillImage" />
      </cc:Work>
    </rdf:RDF>
  </metadata>
  <g
     id="layer1"
     transform="translate(-1.7638882,-1.7636263)">
    <g
       id="g1179"
       transform="matrix(6.666667,0,0,6.666667,-22.930557,-7.0555556)">
      <g
         id="g907"
         transform="translate(-3.2395831e-8,0.26454387)">
        <path
           id="path857"
           style="fill:red;fill-opacity:1;stroke:none;stroke-width:0.999999"
           d="M 16.951172,5 A 1.9999999,1.9999999 0 0 0 15,7 h 1 a 0.99999994,0.99999994 0 0 1 1,-1 0.99999994,0.99999994 0 0 1 1,1 h 1 A 1.9999999,1.9999999 0 0 0 17,5 1.9999999,1.9999999 0 0 0 16.95117,5 Z"
           transform="scale(0.26458333)" />
        <path
           id="path857-3"
           style="fill:blue;fill-opacity:1;stroke:none;stroke-width:0.264583"
           d="M 4.5108357,2.38125 A 0.52916663,0.52916663 0 0 0 5.0270833,1.8520834 H 4.7625 A 0.26458331,0.26458331 0 0 1 4.4979167,2.1166667 0.26458331,0.26458331 0 0 1 4.2333333,1.8520834 H 3.96875 a 0.52916663,0.52916663 0 0 0 0.5291667,0.5291666 0.52916663,0.52916663 0 0 0 0.01292,0 z" />
        <path
           style="fill:blue;fill-opacity:1;stroke:none;stroke-width:0.264583px;stroke-linecap:butt;stroke-linejoin:miter;stroke-opacity:1"
           d="M 3.96875,1.8520833 3.7041666,2.1166666 H 4.2333333 L 3.96875,1.8520833"
           id="path885" />
        <path
           style="fill:red;fill-opacity:1;stroke:none;stroke-width:0.264583px;stroke-linecap:butt;stroke-linejoin:miter;stroke-opacity:1"
           d="M 5.0270833,1.8520833 5.2916666,1.5875 H 4.7624999 Z"
           id="path887" />
      </g>
    </g>
  </g>
</svg>
